<?xml version="1.0" encoding="UTF-8" standalone="no"?><!DOCTYPE svg PUBLIC "-//W3C//DTD SVG 1.1//EN" "http://www.w3.org/Graphics/SVG/1.1/DTD/svg11.dtd"><svg width="100%" height="100%" viewBox="0 0 16 16" version="1.1" xmlns="http://www.w3.org/2000/svg" xmlns:xlink="http://www.w3.org/1999/xlink" xml:space="preserve" xmlns:serif="http://www.serif.com/" style="fill-rule:evenodd;clip-rule:evenodd;stroke-linejoin:round;stroke-miterlimit:1.41421;"><path d="M12.689,2.521l1.052,-1.344c0.254,-0.275 0.435,-0.428 0.978,-0.426c0.907,0.052 1.513,1.163 0.988,1.964c-0.56,0.758 -1.131,1.508 -1.707,2.254l0,0.031l0,6c0,1.656 -1.344,3 -3,3l-6,0c-1.656,0 -3,-1.344 -3,-3l0,-6c0,-1.656 1.344,-3 3,-3l6,0c0.626,0 1.208,0.192 1.689,0.521Zm-8.689,5.896l0,1.583c0,1.104 0.896,2 2,2l0.903,0c-0.073,-0.05 -0.141,-0.109 -0.203,-0.177c-0.99,-1.196 -2.202,-2.382 -2.7,-3.406Zm8,-0.902c-1.126,1.418 -2.26,2.829 -3.375,4.255c-0.074,0.09 -0.159,0.167 -0.252,0.23l1.627,0c1.104,0 2,-0.896 2,-2l0,-2.485Zm-2,-3.515l-4,0c-1.104,0 -2,0.896 -2,2l0,0.876c0.458,-0.594 1.471,-0.642 1.985,-0.021l1.655,2.116l3.571,-4.562c-0.336,-0.257 -0.756,-0.409 -1.211,-0.409Z" style="fill:#442608;"/></svg>