<?xml version="1.0" encoding="UTF-8" standalone="no"?><!DOCTYPE svg PUBLIC "-//W3C//DTD SVG 1.1//EN" "http://www.w3.org/Graphics/SVG/1.1/DTD/svg11.dtd"><svg width="100%" height="100%" viewBox="0 0 16 16" version="1.1" xmlns="http://www.w3.org/2000/svg" xmlns:xlink="http://www.w3.org/1999/xlink" xml:space="preserve" xmlns:serif="http://www.serif.com/" style="fill-rule:evenodd;clip-rule:evenodd;stroke-linejoin:round;stroke-miterlimit:1.41421;"><circle cx="8" cy="-8" r="8" style="fill:#9bce42;"/><circle cx="24" cy="-8" r="8" style="fill:#9bce42;"/><path d="M11,2c1.656,0 3,1.344 3,3l0,6c0,1.656 -1.344,3 -3,3l-6,0c-1.656,0 -3,-1.344 -3,-3l0,-6c0,-1.656 1.344,-3 3,-3l6,0Zm-1,2l-4,0c-1.104,0 -2,0.896 -2,2l0,4c0,1.104 0.896,2 2,2l4,0c1.104,0 2,-0.896 2,-2l0,-4c0,-1.104 -0.896,-2 -2,-2Z" style="fill:#442609;"/></svg>