<?xml version="1.0" encoding="UTF-8" standalone="no"?><!DOCTYPE svg PUBLIC "-//W3C//DTD SVG 1.1//EN" "http://www.w3.org/Graphics/SVG/1.1/DTD/svg11.dtd"><svg width="100%" height="100%" viewBox="0 0 16 16" version="1.1" xmlns="http://www.w3.org/2000/svg" xmlns:xlink="http://www.w3.org/1999/xlink" xml:space="preserve" xmlns:serif="http://www.serif.com/" style="fill-rule:evenodd;clip-rule:evenodd;stroke-miterlimit:1.5;"><g id="check_box_checked_hover"><path d="M-3,5.708c0,-1.264 -1.027,-2.291 -2.292,-2.291l-5.416,0c-1.265,0 -2.292,1.027 -2.292,2.291l0,4.584c0,1.264 1.027,2.291 2.292,2.291l5.416,0c1.265,0 2.292,-1.027 2.292,-2.291l0,-4.584Z" style="fill:none;stroke:#000;stroke-width:2.5px;"/></g><g id="gripper"><path d="M14,2.75c0,-0.414 -0.336,-0.75 -0.75,-0.75l-10.5,0c-0.414,0 -0.75,0.336 -0.75,0.75l0,1.5c0,0.414 0.336,0.75 0.75,0.75l10.5,0c0.414,0 0.75,-0.336 0.75,-0.75l0,-1.5Z"/><path d="M14,7.25c0,-0.414 -0.336,-0.75 -0.75,-0.75l-10.5,0c-0.414,0 -0.75,0.336 -0.75,0.75l0,1.5c0,0.414 0.336,0.75 0.75,0.75l10.5,0c0.414,0 0.75,-0.336 0.75,-0.75l0,-1.5Z"/><path d="M14,11.75c0,-0.414 -0.336,-0.75 -0.75,-0.75l-10.5,0c-0.414,0 -0.75,0.336 -0.75,0.75l0,1.5c0,0.414 0.336,0.75 0.75,0.75l10.5,0c0.414,0 0.75,-0.336 0.75,-0.75l0,-1.5Z"/></g></svg>