<?xml version="1.0" encoding="UTF-8" standalone="no"?><!DOCTYPE svg PUBLIC "-//W3C//DTD SVG 1.1//EN" "http://www.w3.org/Graphics/SVG/1.1/DTD/svg11.dtd"><svg width="100%" height="100%" viewBox="0 0 16 16" version="1.1" xmlns="http://www.w3.org/2000/svg" xmlns:xlink="http://www.w3.org/1999/xlink" xml:space="preserve" xmlns:serif="http://www.serif.com/" style="fill-rule:evenodd;clip-rule:evenodd;stroke-linejoin:round;stroke-miterlimit:1.41421;"><path d="M8.054,2c3.469,0.056 6.624,2.59 7.885,5.918c0,0 -1.164,3.353 -3.973,4.991c-4.191,2.443 -10.157,-0.054 -11.966,-4.827c0,0 2.684,-5.943 7.8,-6.08c0.085,-0.002 0.17,-0.002 0.254,-0.002Zm3.916,10l-4,-4l-4,4l8,0Zm-4,-4l-4,-4l8,0l-4,4Z"/><path d="M-12.871,4.14c1.223,-1.071 2.805,-1.947 4.732,-1.998c0.085,-0.002 0.169,-0.002 0.254,-0.002c3.469,0.056 6.624,2.59 7.885,5.918c0,0 -1.164,3.353 -3.974,4.991c-2.792,1.628 -6.374,1.062 -8.987,-0.909l9.991,0l-5,-4l-4.996,3.997l0.005,0.003l-0.009,0l0.004,-0.003c-1.306,-0.987 -2.371,-2.325 -2.973,-3.915c0,0 1.027,-2.274 3.021,-4.041l-0.052,-0.041l0.099,0Zm0,0l-0.022,0.019l-0.025,0.022l4.948,3.959l5,-4l-9.901,0Z"/></svg>