<?xml version="1.0" encoding="UTF-8" standalone="no"?><!DOCTYPE svg PUBLIC "-//W3C//DTD SVG 1.1//EN" "http://www.w3.org/Graphics/SVG/1.1/DTD/svg11.dtd"><svg width="100%" height="100%" viewBox="0 0 16 16" version="1.1" xmlns="http://www.w3.org/2000/svg" xmlns:xlink="http://www.w3.org/1999/xlink" xml:space="preserve" xmlns:serif="http://www.serif.com/" style="fill-rule:evenodd;clip-rule:evenodd;stroke-linejoin:round;stroke-miterlimit:1.41421;"><path d="M-7.915,2l0.084,0.002l0.085,0.002l0.084,0.003l0.084,0.004l0.083,0.005l0.084,0.006l0.083,0.007l0.083,0.007l0.083,0.009l0.082,0.009l0.083,0.01l0.082,0.011l0.082,0.012l0.082,0.013l0.081,0.014l0.081,0.014l0.081,0.015l0.081,0.016l0.08,0.017l0.08,0.018l0.08,0.019l0.08,0.019l0.079,0.02l0.079,0.021l0.079,0.022l0.078,0.023l0.078,0.023l0.078,0.025l0.078,0.025l0.077,0.025l0.077,0.027l0.077,0.027l0.076,0.028l0.076,0.029l0.076,0.03l0.075,0.03l0.076,0.032l0.074,0.032l0.075,0.032l0.074,0.034l0.073,0.034l0.074,0.035l0.073,0.035l0.073,0.037l0.072,0.037l0.072,0.038l0.071,0.038l0.072,0.039l0.071,0.04l0.07,0.041l0.07,0.041l0.07,0.042l0.069,0.043l0.069,0.043l0.069,0.044l0.068,0.045l0.068,0.046l0.067,0.046l0.067,0.047l0.066,0.047l0.066,0.048l0.066,0.049l0.065,0.049l0.065,0.05l0.065,0.051l0.064,0.051l0.063,0.052l0.063,0.053l0.063,0.053l0.062,0.054l0.062,0.054l0.061,0.055l0.061,0.056l0.06,0.056l0.06,0.057l0.059,0.057l0.059,0.058l0.059,0.059l0.058,0.059l0.057,0.06l0.057,0.06l0.113,0.123l0.11,0.124l0.109,0.127l0.106,0.129l0.104,0.131l0.102,0.133l0.1,0.136l0.098,0.137l0.096,0.14l0.093,0.141l0.091,0.143l0.089,0.146l0.086,0.147l0.084,0.149l0.082,0.15l0.079,0.153l0.077,0.154l0.074,0.156l0.072,0.158l0.035,0.08l0.034,0.079l0.034,0.081l0.033,0.08l0.032,0.081l0.032,0.082l0.031,0.082l0.03,0.082l-0.03,0.082l-0.031,0.082l-0.032,0.082l-0.032,0.081l-0.033,0.08l-0.034,0.081l-0.034,0.079l-0.035,0.08l-0.072,0.158l-0.074,0.156l-0.077,0.154l-0.079,0.153l-0.082,0.15l-0.084,0.149l-0.086,0.147l-0.089,0.146l-0.091,0.143l-0.093,0.141l-0.096,0.14l-0.098,0.137l-0.1,0.136l-0.102,0.133l-0.104,0.131l-0.106,0.129l-0.109,0.127l-0.11,0.124l-0.113,0.123l-0.057,0.06l-0.057,0.06l-0.058,0.059l-0.059,0.059l-0.059,0.058l-0.059,0.057l-0.06,0.057l-0.06,0.056l-0.061,0.056l-0.061,0.055l-0.062,0.054l-0.062,0.054l-0.063,0.053l-0.063,0.053l-0.063,0.052l-0.064,0.051l-0.065,0.051l-0.065,0.05l-0.065,0.049l-0.066,0.049l-0.066,0.048l-0.066,0.047l-0.067,0.047l-0.067,0.046l-0.068,0.046l-0.068,0.045l-0.069,0.044l-0.069,0.043l-0.069,0.043l-0.07,0.042l-0.07,0.041l-0.07,0.041l-0.071,0.04l-0.072,0.039l-0.071,0.038l-0.072,0.038l-0.072,0.037l-0.073,0.037l-0.073,0.035l-0.074,0.035l-0.073,0.034l-0.074,0.034l-0.075,0.032l-0.074,0.032l-0.076,0.032l-0.075,0.03l-0.076,0.03l-0.076,0.029l-0.076,0.028l-0.077,0.027l-0.077,0.027l-0.077,0.025l-0.078,0.025l-0.078,0.025l-0.078,0.023l-0.078,0.023l-0.079,0.022l-0.079,0.021l-0.079,0.02l-0.08,0.019l-0.08,0.019l-0.08,0.018l-0.08,0.017l-0.081,0.016l-0.081,0.015l-0.081,0.014l-0.081,0.014l-0.082,0.013l-0.082,0.012l-0.082,0.011l-0.083,0.01l-0.082,0.009l-0.083,0.009l-0.083,0.007l-0.083,0.007l-0.084,0.006l-0.083,0.005l-0.084,0.004l-0.084,0.003l-0.085,0.002l-0.084,0.002l-0.085,0l-0.085,0l-0.084,-0.002l-0.085,-0.002l-0.084,-0.003l-0.084,-0.004l-0.083,-0.005l-0.084,-0.006l-0.083,-0.007l-0.083,-0.007l-0.083,-0.009l-0.082,-0.009l-0.083,-0.01l-0.082,-0.011l-0.082,-0.012l-0.082,-0.013l-0.081,-0.014l-0.081,-0.014l-0.081,-0.015l-0.081,-0.016l-0.08,-0.017l-0.08,-0.018l-0.08,-0.019l-0.08,-0.019l-0.079,-0.02l-0.079,-0.021l-0.079,-0.022l-0.078,-0.023l-0.078,-0.023l-0.078,-0.025l-0.078,-0.025l-0.077,-0.025l-0.077,-0.027l-0.077,-0.027l-0.076,-0.028l-0.076,-0.029l-0.076,-0.03l-0.075,-0.03l-0.076,-0.032l-0.074,-0.032l-0.075,-0.032l-0.074,-0.034l-0.073,-0.034l-0.074,-0.035l-0.073,-0.035l-0.073,-0.037l-0.072,-0.037l-0.072,-0.038l-0.071,-0.038l-0.072,-0.039l-0.071,-0.04l-0.07,-0.041l-0.07,-0.041l-0.07,-0.042l-0.069,-0.043l-0.069,-0.043l-0.069,-0.044l-0.068,-0.045l-0.068,-0.046l-0.067,-0.046l-0.067,-0.047l-0.066,-0.047l-0.066,-0.048l-0.066,-0.049l-0.065,-0.049l-0.065,-0.05l-0.065,-0.051l-0.064,-0.051l-0.063,-0.052l-0.063,-0.053l-0.063,-0.053l-0.062,-0.054l-0.062,-0.054l-0.061,-0.055l-0.061,-0.056l-0.06,-0.056l-0.06,-0.057l-0.059,-0.057l-0.059,-0.058l-0.059,-0.059l-0.058,-0.059l-0.057,-0.06l-0.057,-0.06l-0.113,-0.123l-0.11,-0.124l-0.109,-0.127l-0.106,-0.129l-0.104,-0.131l-0.102,-0.133l-0.1,-0.136l-0.098,-0.137l-0.096,-0.14l-0.093,-0.141l-0.091,-0.143l-0.089,-0.146l-0.086,-0.147l-0.084,-0.149l-0.082,-0.15l-0.079,-0.153l-0.077,-0.154l-0.074,-0.156l-0.072,-0.158l-0.035,-0.08l-0.034,-0.079l-0.034,-0.081l-0.033,-0.08l-0.032,-0.081l-0.032,-0.082l-0.031,-0.082l-0.03,-0.082l0.03,-0.082l0.031,-0.082l0.032,-0.082l0.032,-0.081l0.033,-0.08l0.034,-0.081l0.034,-0.079l0.035,-0.08l0.072,-0.158l0.074,-0.156l0.077,-0.154l0.079,-0.153l0.082,-0.15l0.084,-0.149l0.086,-0.147l0.089,-0.146l0.091,-0.143l0.093,-0.141l0.096,-0.14l0.098,-0.137l0.1,-0.136l0.102,-0.133l0.104,-0.131l0.106,-0.129l0.109,-0.127l0.11,-0.124l0.113,-0.123l0.057,-0.06l0.057,-0.06l0.058,-0.059l0.059,-0.059l0.059,-0.058l0.059,-0.057l0.06,-0.057l0.06,-0.056l0.061,-0.056l0.061,-0.055l0.062,-0.054l0.062,-0.054l0.063,-0.053l0.063,-0.053l0.063,-0.052l0.064,-0.051l0.065,-0.051l0.065,-0.05l0.065,-0.049l0.066,-0.049l0.066,-0.048l0.066,-0.047l0.067,-0.047l0.067,-0.046l0.068,-0.046l0.068,-0.045l0.069,-0.044l0.069,-0.043l0.069,-0.043l0.07,-0.042l0.07,-0.041l0.07,-0.041l0.071,-0.04l0.072,-0.039l0.071,-0.038l0.072,-0.038l0.072,-0.037l0.073,-0.037l0.073,-0.035l0.074,-0.035l0.073,-0.034l0.074,-0.034l0.075,-0.032l0.074,-0.032l0.076,-0.032l0.075,-0.03l0.076,-0.03l0.076,-0.029l0.076,-0.028l0.077,-0.027l0.077,-0.027l0.077,-0.025l0.078,-0.025l0.078,-0.025l0.078,-0.023l0.078,-0.023l0.079,-0.022l0.079,-0.021l0.079,-0.02l0.08,-0.019l0.08,-0.019l0.08,-0.018l0.08,-0.017l0.081,-0.016l0.081,-0.015l0.081,-0.014l0.081,-0.014l0.082,-0.013l0.082,-0.012l0.082,-0.011l0.083,-0.01l0.082,-0.009l0.083,-0.009l0.083,-0.007l0.083,-0.007l0.084,-0.006l0.083,-0.005l0.084,-0.004l0.084,-0.003l0.085,-0.002l0.084,-0.002l0.085,0l0.085,0Zm-0.148,2l-0.063,0.001l-0.063,0.002l-0.063,0.002l-0.062,0.003l-0.063,0.004l-0.062,0.004l-0.062,0.005l-0.062,0.006l-0.061,0.006l-0.062,0.007l-0.061,0.008l-0.061,0.008l-0.061,0.009l-0.061,0.009l-0.06,0.011l-0.06,0.01l-0.061,0.012l-0.06,0.012l-0.059,0.012l-0.06,0.013l-0.059,0.014l-0.06,0.015l-0.059,0.015l-0.059,0.015l-0.058,0.017l-0.059,0.017l-0.058,0.017l-0.058,0.018l-0.058,0.019l-0.058,0.019l-0.058,0.02l-0.057,0.021l-0.057,0.021l-0.057,0.021l-0.057,0.022l-0.057,0.023l-0.056,0.024l-0.056,0.024l-0.056,0.024l-0.056,0.025l-0.055,0.026l-0.056,0.027l-0.055,0.027l-0.055,0.027l-0.055,0.028l-0.054,0.029l-0.054,0.029l-0.054,0.03l-0.054,0.03l-0.054,0.031l-0.053,0.031l-0.053,0.032l-0.053,0.033l-0.052,0.033l-0.053,0.033l-0.052,0.035l-0.052,0.034l-0.051,0.036l-0.052,0.036l-0.051,0.036l-0.05,0.037l-0.051,0.037l-0.05,0.038l-0.05,0.039l-0.05,0.039l-0.049,0.039l-0.049,0.041l-0.049,0.04l-0.048,0.041l-0.048,0.042l-0.048,0.042l-0.048,0.043l-0.047,0.043l-0.047,0.044l-0.046,0.044l-0.047,0.045l-0.046,0.045l-0.045,0.046l-0.045,0.046l-0.045,0.047l-0.042,0.044l-0.091,0.099l-0.087,0.097l-0.085,0.1l-0.083,0.102l-0.083,0.103l-0.08,0.105l-0.079,0.107l-0.077,0.109l-0.076,0.11l-0.074,0.112l-0.072,0.114l-0.071,0.115l-0.069,0.117l-0.067,0.119l-0.065,0.12l-0.063,0.122l-0.061,0.123l-0.041,0.086l0.041,0.086l0.061,0.123l0.063,0.122l0.065,0.12l0.067,0.119l0.069,0.117l0.071,0.115l0.072,0.114l0.074,0.112l0.076,0.11l0.077,0.109l0.079,0.107l0.08,0.105l0.083,0.103l0.083,0.102l0.085,0.1l0.087,0.097l0.091,0.099l0.042,0.044l0.045,0.047l0.045,0.046l0.045,0.046l0.046,0.045l0.047,0.045l0.046,0.044l0.047,0.044l0.047,0.043l0.048,0.043l0.048,0.042l0.048,0.042l0.048,0.041l0.049,0.04l0.049,0.041l0.049,0.039l0.05,0.039l0.05,0.039l0.05,0.038l0.051,0.037l0.05,0.037l0.051,0.036l0.052,0.036l0.051,0.036l0.052,0.034l0.052,0.035l0.053,0.033l0.052,0.033l0.053,0.033l0.053,0.032l0.053,0.031l0.054,0.031l0.054,0.03l0.054,0.03l0.054,0.029l0.054,0.029l0.055,0.028l0.055,0.027l0.055,0.027l0.056,0.027l0.055,0.026l0.056,0.025l0.056,0.024l0.056,0.024l0.056,0.024l0.057,0.023l0.057,0.022l0.057,0.021l0.057,0.021l0.057,0.021l0.058,0.02l0.058,0.019l0.058,0.019l0.058,0.018l0.058,0.017l0.059,0.017l0.058,0.017l0.059,0.015l0.059,0.015l0.06,0.015l0.059,0.014l0.06,0.013l0.059,0.012l0.06,0.012l0.061,0.012l0.06,0.01l0.06,0.011l0.061,0.009l0.061,0.009l0.061,0.008l0.061,0.008l0.062,0.007l0.061,0.006l0.062,0.006l0.062,0.005l0.062,0.004l0.063,0.004l0.062,0.003l0.063,0.002l0.063,0.002l0.063,0.001l0.063,0l0.063,0l0.063,-0.001l0.063,-0.002l0.063,-0.002l0.062,-0.003l0.063,-0.004l0.062,-0.004l0.062,-0.005l0.062,-0.006l0.061,-0.006l0.062,-0.007l0.061,-0.008l0.061,-0.008l0.061,-0.009l0.061,-0.009l0.06,-0.011l0.06,-0.01l0.061,-0.012l0.06,-0.012l0.059,-0.012l0.06,-0.013l0.059,-0.014l0.06,-0.015l0.059,-0.015l0.059,-0.015l0.058,-0.017l0.059,-0.017l0.058,-0.017l0.058,-0.018l0.058,-0.019l0.058,-0.019l0.058,-0.02l0.057,-0.021l0.057,-0.021l0.057,-0.021l0.057,-0.022l0.057,-0.023l0.056,-0.024l0.056,-0.024l0.056,-0.024l0.056,-0.025l0.055,-0.026l0.056,-0.027l0.055,-0.027l0.055,-0.027l0.055,-0.028l0.054,-0.029l0.054,-0.029l0.054,-0.03l0.054,-0.03l0.054,-0.031l0.053,-0.031l0.053,-0.032l0.053,-0.033l0.052,-0.033l0.053,-0.033l0.052,-0.035l0.052,-0.034l0.051,-0.036l0.052,-0.036l0.051,-0.036l0.05,-0.037l0.051,-0.037l0.05,-0.038l0.05,-0.039l0.05,-0.039l0.049,-0.039l0.049,-0.041l0.049,-0.04l0.048,-0.041l0.048,-0.042l0.048,-0.042l0.048,-0.043l0.047,-0.043l0.047,-0.044l0.046,-0.044l0.047,-0.045l0.046,-0.045l0.045,-0.046l0.045,-0.046l0.045,-0.047l0.042,-0.044l0.091,-0.099l0.087,-0.097l0.085,-0.1l0.083,-0.102l0.083,-0.103l0.08,-0.105l0.079,-0.107l0.077,-0.109l0.076,-0.11l0.074,-0.112l0.072,-0.114l0.071,-0.115l0.069,-0.117l0.067,-0.119l0.065,-0.12l0.063,-0.122l0.061,-0.123l0.041,-0.086l-0.041,-0.086l-0.061,-0.123l-0.063,-0.122l-0.065,-0.12l-0.067,-0.119l-0.069,-0.117l-0.071,-0.115l-0.072,-0.114l-0.074,-0.112l-0.076,-0.11l-0.077,-0.109l-0.079,-0.107l-0.08,-0.105l-0.083,-0.103l-0.083,-0.102l-0.085,-0.1l-0.087,-0.097l-0.091,-0.099l-0.042,-0.044l-0.045,-0.047l-0.045,-0.046l-0.045,-0.046l-0.046,-0.045l-0.047,-0.045l-0.046,-0.044l-0.047,-0.044l-0.047,-0.043l-0.048,-0.043l-0.048,-0.042l-0.048,-0.042l-0.048,-0.041l-0.049,-0.04l-0.049,-0.041l-0.049,-0.039l-0.05,-0.039l-0.05,-0.039l-0.05,-0.038l-0.051,-0.037l-0.05,-0.037l-0.051,-0.036l-0.052,-0.036l-0.051,-0.036l-0.052,-0.034l-0.052,-0.035l-0.053,-0.033l-0.052,-0.033l-0.053,-0.033l-0.053,-0.032l-0.053,-0.031l-0.054,-0.031l-0.054,-0.03l-0.054,-0.03l-0.054,-0.029l-0.054,-0.029l-0.055,-0.028l-0.055,-0.027l-0.055,-0.027l-0.056,-0.027l-0.055,-0.026l-0.056,-0.025l-0.056,-0.024l-0.056,-0.024l-0.056,-0.024l-0.057,-0.023l-0.057,-0.022l-0.057,-0.021l-0.057,-0.021l-0.057,-0.021l-0.058,-0.02l-0.058,-0.019l-0.058,-0.019l-0.058,-0.018l-0.058,-0.017l-0.059,-0.017l-0.058,-0.017l-0.059,-0.015l-0.059,-0.015l-0.06,-0.015l-0.059,-0.014l-0.06,-0.013l-0.059,-0.012l-0.06,-0.012l-0.061,-0.012l-0.06,-0.01l-0.06,-0.011l-0.061,-0.009l-0.061,-0.009l-0.061,-0.008l-0.061,-0.008l-0.062,-0.007l-0.061,-0.006l-0.062,-0.006l-0.062,-0.005l-0.062,-0.004l-0.063,-0.004l-0.062,-0.003l-0.063,-0.002l-0.063,-0.002l-0.063,-0.001l-0.063,0l-0.063,0Z"/><path d="M0,8c1.281,-3.517 4.382,-6 8,-6c3.618,0 6.719,2.483 8,6c-1.281,3.517 -4.382,6 -8,6c-3.618,0 -6.719,-2.483 -8,-6Zm14,-2l-12,0l0,4l12,0l0,-4Z"/></svg>