<?xml version="1.0" encoding="UTF-8" standalone="no"?>
<!DOCTYPE svg PUBLIC "-//W3C//DTD SVG 1.1//EN" "http://www.w3.org/Graphics/SVG/1.1/DTD/svg11.dtd">
<svg version="1.1" xmlns="http://www.w3.org/2000/svg" xmlns:xlink="http://www.w3.org/1999/xlink" preserveAspectRatio="xMidYMid meet" viewBox="0 0 640 640" width="64" height="640"><defs><path d="M638 319.6C638 494.78 495.78 637 320.6 637C145.42 637 3.2 494.78 3.2 319.6C3.2 144.42 145.42 2.2 320.6 2.2C495.78 2.2 638 144.42 638 319.6Z" id="f1r8pRzwZF"></path><path d="M565.69 260.65C570.48 260.65 574.36 264.53 574.36 269.32C574.36 293.71 574.36 358.22 574.36 382.61C574.36 387.4 570.48 391.28 565.69 391.28C469.61 391.28 190.04 391.28 93.96 391.28C89.18 391.28 85.3 387.4 85.3 382.61C85.3 358.22 85.3 293.71 85.3 269.32C85.3 264.53 89.18 260.65 93.96 260.65C190.04 260.65 469.61 260.65 565.69 260.65Z" id="a3sRrT1bK8"></path></defs><g><g><g><use xlink:href="#f1r8pRzwZF" opacity="1" fill="#60380f" fill-opacity="1"></use></g><g><use xlink:href="#a3sRrT1bK8" opacity="1" fill="#ffe7b0" fill-opacity="1"></use></g></g></g></svg>