<?xml version="1.0" encoding="UTF-8" standalone="no"?>
<!DOCTYPE svg PUBLIC "-//W3C//DTD SVG 1.1//EN" "http://www.w3.org/Graphics/SVG/1.1/DTD/svg11.dtd">
<svg version="1.1" xmlns="http://www.w3.org/2000/svg" xmlns:xlink="http://www.w3.org/1999/xlink" preserveAspectRatio="xMidYMid meet" viewBox="0 0 640 640" width="64" height="64"><defs><path d="M385.76 75.98C385.76 112.27 356.29 141.74 320 141.74C283.71 141.74 254.24 112.27 254.24 75.98C254.24 39.68 283.71 10.22 320 10.22C356.29 10.22 385.76 39.68 385.76 75.98Z" id="a2WREX5hJT"></path><path d="M385.76 565.54C385.76 601.84 356.29 631.3 320 631.3C283.71 631.3 254.24 601.84 254.24 565.54C254.24 529.25 283.71 499.78 320 499.78C356.29 499.78 385.76 529.25 385.76 565.54Z" id="d6QxhtimIz"></path><path d="M413.48 320C413.48 371.59 371.59 413.48 320 413.48C268.41 413.48 226.52 371.59 226.52 320C226.52 268.41 268.41 226.52 320 226.52C371.59 226.52 413.48 268.41 413.48 320Z" id="jYzrzvqc1"></path></defs><g><g><g><use xlink:href="#a2WREX5hJT" opacity="1" fill="#ffe7b0" fill-opacity="1"></use></g><g><use xlink:href="#d6QxhtimIz" opacity="1" fill="#ffe7b0" fill-opacity="1"></use></g><g><use xlink:href="#jYzrzvqc1" opacity="1" fill="#ffe7b0" fill-opacity="1"></use></g></g></g></svg>
