<?xml version="1.0" encoding="UTF-8" standalone="no"?>
<!DOCTYPE svg PUBLIC "-//W3C//DTD SVG 1.1//EN" "http://www.w3.org/Graphics/SVG/1.1/DTD/svg11.dtd">
<svg version="1.1" xmlns="http://www.w3.org/2000/svg" xmlns:xlink="http://www.w3.org/1999/xlink" preserveAspectRatio="xMidYMid meet" viewBox="0 0 640 640" width="64" height="64"><defs><path d="M634.5 319.37C634.5 493.04 493.5 634.04 319.83 634.04C146.15 634.04 5.15 493.04 5.15 319.37C5.15 145.7 146.15 4.7 319.83 4.7C493.5 4.7 634.5 145.7 634.5 319.37Z" id="flO27ZB84"></path><path d="M385.7 97.96L386.03 97.99L386.36 98.03L386.68 98.08L386.99 98.15L387.3 98.22L387.61 98.31L387.91 98.4L388.21 98.51L388.5 98.62L388.78 98.75L389.06 98.88L389.33 99.02L389.59 99.18L389.85 99.34L390.1 99.51L390.34 99.69L390.57 99.87L390.8 100.06L391.01 100.27L391.22 100.47L391.42 100.69L391.61 100.91L391.79 101.14L391.96 101.38L392.12 101.62L392.27 101.86L392.41 102.12L392.54 102.37L392.66 102.64L392.77 102.91L392.86 103.18L392.95 103.46L393.02 103.74L393.08 104.02L393.12 104.31L393.16 104.61L393.18 104.9L393.19 105.2L393.19 250.56L556.21 250.56L556.54 250.56L556.87 250.58L557.2 250.61L557.53 250.65L557.85 250.7L558.16 250.77L558.47 250.84L558.78 250.93L559.08 251.02L559.38 251.13L559.67 251.24L559.95 251.37L560.23 251.5L560.5 251.65L560.76 251.8L561.02 251.96L561.27 252.13L561.51 252.31L561.74 252.49L561.97 252.69L562.19 252.89L562.39 253.1L562.59 253.31L562.78 253.53L562.96 253.76L563.13 254L563.3 254.24L563.45 254.49L563.59 254.74L563.72 255L563.83 255.26L563.94 255.53L564.04 255.8L564.12 256.08L564.19 256.36L564.25 256.65L564.3 256.94L564.33 257.23L564.35 257.52L564.36 257.82L564.36 374.11L564.35 374.41L564.33 374.7L564.3 375L564.25 375.29L564.19 375.57L564.12 375.85L564.04 376.13L563.94 376.4L563.83 376.67L563.72 376.93L563.59 377.19L563.45 377.45L563.3 377.69L563.13 377.93L562.96 378.17L562.78 378.4L562.59 378.62L562.39 378.84L562.19 379.04L561.97 379.24L561.74 379.44L561.51 379.62L561.27 379.8L561.02 379.97L560.76 380.13L560.5 380.29L560.23 380.43L559.95 380.56L559.67 380.69L559.38 380.8L559.08 380.91L558.78 381L558.47 381.09L558.16 381.16L557.85 381.23L557.53 381.28L557.2 381.32L556.87 381.35L556.54 381.37L556.21 381.37L393.19 381.37L393.19 526.73L393.18 527.03L393.16 527.32L393.12 527.62L393.08 527.91L393.02 528.19L392.95 528.47L392.86 528.75L392.77 529.02L392.66 529.29L392.54 529.56L392.41 529.81L392.27 530.07L392.12 530.31L391.96 530.56L391.79 530.79L391.61 531.02L391.42 531.24L391.22 531.46L391.01 531.67L390.8 531.87L390.57 532.06L390.34 532.25L390.1 532.42L389.85 532.59L389.59 532.75L389.33 532.91L389.06 533.05L388.78 533.18L388.5 533.31L388.21 533.42L387.91 533.53L387.61 533.63L387.3 533.71L386.99 533.78L386.68 533.85L386.36 533.9L386.03 533.94L385.7 533.97L385.37 533.99L385.03 534L254.62 534L254.28 533.99L253.95 533.97L253.62 533.94L253.3 533.9L252.98 533.85L252.66 533.78L252.35 533.71L252.04 533.63L251.74 533.53L251.45 533.42L251.16 533.31L250.87 533.18L250.6 533.05L250.33 532.91L250.06 532.75L249.81 532.59L249.56 532.42L249.31 532.25L249.08 532.06L248.86 531.87L248.64 531.67L248.43 531.46L248.23 531.24L248.04 531.02L247.86 530.79L247.69 530.56L247.53 530.31L247.38 530.07L247.24 529.81L247.11 529.56L246.99 529.29L246.88 529.02L246.79 528.75L246.7 528.47L246.63 528.19L246.57 527.91L246.53 527.62L246.49 527.32L246.47 527.03L246.47 526.73L246.47 381.37L83.45 381.37L83.11 381.37L82.78 381.35L82.45 381.32L82.13 381.28L81.8 381.23L81.49 381.16L81.18 381.09L80.87 381L80.57 380.91L80.28 380.8L79.99 380.69L79.7 380.56L79.42 380.43L79.15 380.29L78.89 380.13L78.63 379.97L78.38 379.8L78.14 379.62L77.91 379.44L77.68 379.24L77.47 379.04L77.26 378.84L77.06 378.62L76.87 378.4L76.69 378.17L76.52 377.93L76.36 377.69L76.21 377.45L76.07 377.19L75.94 376.93L75.82 376.67L75.71 376.4L75.62 376.13L75.53 375.85L75.46 375.57L75.4 375.29L75.36 375L75.32 374.7L75.3 374.41L75.3 374.11L75.3 257.82L75.3 257.52L75.32 257.23L75.36 256.94L75.4 256.65L75.46 256.36L75.53 256.08L75.62 255.8L75.71 255.53L75.82 255.26L75.94 255L76.07 254.74L76.21 254.49L76.36 254.24L76.52 254L76.69 253.76L76.87 253.53L77.06 253.31L77.26 253.1L77.47 252.89L77.68 252.69L77.91 252.49L78.14 252.31L78.38 252.13L78.63 251.96L78.89 251.8L79.15 251.65L79.42 251.5L79.7 251.37L79.99 251.24L80.28 251.13L80.57 251.02L80.87 250.93L81.18 250.84L81.49 250.77L81.8 250.7L82.13 250.65L82.45 250.61L82.78 250.58L83.11 250.56L83.45 250.56L246.47 250.56L246.47 105.2L246.47 104.9L246.49 104.61L246.53 104.31L246.57 104.02L246.63 103.74L246.7 103.46L246.79 103.18L246.88 102.91L246.99 102.64L247.11 102.37L247.24 102.12L247.38 101.86L247.53 101.62L247.69 101.38L247.86 101.14L248.04 100.91L248.23 100.69L248.43 100.47L248.64 100.27L248.86 100.06L249.08 99.87L249.31 99.69L249.56 99.51L249.81 99.34L250.06 99.18L250.33 99.02L250.6 98.88L250.87 98.75L251.16 98.62L251.45 98.51L251.74 98.4L252.04 98.31L252.35 98.22L252.66 98.15L252.98 98.08L253.3 98.03L253.62 97.99L253.95 97.96L254.28 97.94L254.62 97.93L385.03 97.93L385.37 97.94L385.7 97.96Z" id="bc2Dql4kQ"></path></defs><g><g><g><use xlink:href="#flO27ZB84" opacity="1" fill="#666666" fill-opacity="1"></use></g><g><use xlink:href="#bc2Dql4kQ" opacity="1" fill="#FFECC2" fill-opacity="1"></use></g></g></g></svg>
