<?xml version="1.0" encoding="UTF-8" standalone="no"?><!DOCTYPE svg PUBLIC "-//W3C//DTD SVG 1.1//EN" "http://www.w3.org/Graphics/SVG/1.1/DTD/svg11.dtd"><svg width="100%" height="100%" viewBox="0 0 16 16" version="1.1" xmlns="http://www.w3.org/2000/svg" xmlns:xlink="http://www.w3.org/1999/xlink" xml:space="preserve" xmlns:serif="http://www.serif.com/" style="fill-rule:evenodd;clip-rule:evenodd;stroke-linecap:round;stroke-linejoin:round;stroke-miterlimit:1.5;"><g id="recycle"><circle cx="-8" cy="8" r="8" style="fill:#d0975c;"/></g><g id="recycle-hover"><circle cx="8" cy="8" r="8" style="fill:#efc082;"/><circle cx="8" cy="8" r="5" style="fill:none;stroke:#442608;stroke-width:2.5px;"/><path d="M14,3l-5,5l5,0l0,-5Z" style="fill:#442608;"/><path d="M15,8l-0.017,0l0,1.83l-6,0l0,-1.839l5.017,0l0,-1.991l1,0l0,2Z" style="fill:#efc082;"/></g><g id="check_box"><circle cx="24" cy="8" r="8" style="fill:#d0975c;"/><path d="M29,5.708c0,-1.264 -1.027,-2.291 -2.292,-2.291l-5.416,0c-1.265,0 -2.292,1.027 -2.292,2.291l0,4.584c0,1.264 1.027,2.291 2.292,2.291l5.416,0c1.265,0 2.292,-1.027 2.292,-2.291l0,-4.584Z" style="fill:none;stroke:#442608;stroke-width:2.5px;stroke-linecap:butt;stroke-linejoin:miter;"/></g></svg>