<?xml version="1.0" encoding="UTF-8" standalone="no"?><!DOCTYPE svg PUBLIC "-//W3C//DTD SVG 1.1//EN" "http://www.w3.org/Graphics/SVG/1.1/DTD/svg11.dtd"><svg width="100%" height="100%" viewBox="0 0 16 16" version="1.1" xmlns="http://www.w3.org/2000/svg" xmlns:xlink="http://www.w3.org/1999/xlink" xml:space="preserve" xmlns:serif="http://www.serif.com/" style="fill-rule:evenodd;clip-rule:evenodd;stroke-linejoin:round;stroke-miterlimit:1.41421;"><path d="M11.01,5.909c-0.649,-0.998 -1.772,-1.659 -3.046,-1.659c-2.007,0 -3.636,1.636 -3.636,3.652c0,2.016 1.629,3.652 3.636,3.652c1.247,0 2.349,-0.633 3.004,-1.596l2.633,0c-0.84,2.3 -3.048,3.944 -5.637,3.944c-3.312,0 -6,-2.688 -6,-6c0,-3.311 2.688,-6 6,-6c1.924,0 3.637,0.908 4.736,2.318l1.302,-1.303l0,5l-5,0l2.008,-2.008Z"/><path d="M11.01,5.909c-0.649,-0.998 -1.772,-1.659 -3.046,-1.659c-2.007,0 -3.636,1.636 -3.636,3.652c0,2.016 1.629,3.652 3.636,3.652c1.247,0 2.349,-0.633 3.004,-1.596l2.633,0c-0.84,2.3 -3.048,3.944 -5.637,3.944c-3.312,0 -6,-2.688 -6,-6c0,-3.311 2.688,-6 6,-6c1.924,0 3.637,0.908 4.736,2.318l1.302,-1.303l0,5l-5,0l2.008,-2.008Z"/></svg>