<?xml version="1.0" encoding="UTF-8" standalone="no"?>
<!DOCTYPE svg PUBLIC "-//W3C//DTD SVG 1.1//EN" "http://www.w3.org/Graphics/SVG/1.1/DTD/svg11.dtd">
<svg version="1.1" xmlns="http://www.w3.org/2000/svg" xmlns:xlink="http://www.w3.org/1999/xlink" preserveAspectRatio="xMidYMid meet" viewBox="0 0 640 640" width="64" height="64"><defs><path d="M160.69 19.41C83.79 19.41 21.23 81.48 21.23 157.78C21.23 179.28 21.23 351.26 21.23 372.76C21.23 449.06 83.79 511.13 160.69 511.13C167.58 511.13 222.67 511.13 229.56 511.13C251.53 511.13 242.69 506.49 213.33 489.26C189.42 475.22 188.81 477.04 170.26 465.34C166.53 462.99 136.68 444.15 132.95 441.79C100.51 421.31 100.92 401.03 100.92 362.87C100.92 343.35 100.92 187.19 100.92 167.67C100.92 129.51 132.21 98.48 170.65 98.48C200.53 98.48 439.61 98.48 469.49 98.48C507.93 98.48 539.22 129.51 539.22 167.67C539.22 187.19 539.22 343.35 539.22 362.87C539.22 401.02 507.93 432.06 469.49 432.06C468.16 432.06 461.52 432.06 449.57 432.06C449.57 370.58 449.57 336.42 449.57 329.59C449.57 325.84 447.44 322.42 444.06 320.74C440.69 319.08 436.65 319.44 433.63 321.68C415.03 335.88 266.27 449.49 247.68 463.69C245.17 465.56 243.69 468.48 243.69 471.6C243.69 474.71 245.17 477.63 247.68 479.5C266.27 493.93 415.03 609.39 433.63 623.82C435.38 625.13 437.49 625.8 439.61 625.8C441.12 625.8 442.65 625.45 444.06 624.76C447.44 623.08 449.57 619.66 449.57 615.92C449.57 608.93 449.57 574 449.57 511.13C467.5 511.13 477.46 511.13 479.45 511.13C556.35 511.13 618.91 449.06 618.91 372.76C618.91 351.26 618.91 179.28 618.91 157.78C618.91 81.48 556.35 19.41 479.45 19.41C479.45 19.41 192.56 19.41 160.69 19.41Z" id="a24CgLcDiY"></path></defs><g><g><g><use xlink:href="#a24CgLcDiY" opacity="1" fill="#fff7e6" fill-opacity="1"></use></g></g></g></svg>
