<?xml version="1.0" encoding="UTF-8" standalone="no"?><!DOCTYPE svg PUBLIC "-//W3C//DTD SVG 1.1//EN" "http://www.w3.org/Graphics/SVG/1.1/DTD/svg11.dtd"><svg width="100%" height="100%" viewBox="0 0 16 16" version="1.1" xmlns="http://www.w3.org/2000/svg" xmlns:xlink="http://www.w3.org/1999/xlink" xml:space="preserve" xmlns:serif="http://www.serif.com/" style="fill-rule:evenodd;clip-rule:evenodd;stroke-linejoin:round;stroke-miterlimit:1.41421;"><g id="recycle"><circle cx="8" cy="-8" r="8" style="fill:#d0975c;"/><path d="M13.715,-6.17c-0.774,2.418 -3.042,4.17 -5.715,4.17c-3.311,0 -6,-2.689 -6,-6c0,-3.311 2.689,-6 6,-6c3.309,0 5.995,2.684 6,5.991l-3.5,0c-0.005,-1.375 -1.123,-2.491 -2.5,-2.491c-1.38,0 -2.5,1.12 -2.5,2.5c0,1.38 1.12,2.5 2.5,2.5c0.658,0 1.256,-0.254 1.703,-0.67l4.012,0Z"/><path d="M8.077,-14l0.078,0.002l0.077,0.002l0.076,0.004l0.077,0.004l0.076,0.005l0.076,0.007l0.076,0.007l0.075,0.008l0.075,0.009l0.075,0.01l0.074,0.011l0.075,0.012l0.074,0.013l0.073,0.013l0.074,0.015l0.073,0.015l0.072,0.016l0.073,0.018l0.072,0.018l0.071,0.019l0.071,0.019l0.071,0.021l0.071,0.021l0.07,0.023l0.07,0.023l0.069,0.024l0.069,0.025l0.069,0.025l0.068,0.027l0.068,0.027l0.068,0.028l0.067,0.029l0.066,0.029l0.066,0.031l0.066,0.031l0.066,0.032l0.064,0.033l0.065,0.033l0.064,0.034l0.063,0.035l0.063,0.036l0.063,0.037l0.062,0.037l0.061,0.038l0.062,0.038l0.06,0.04l0.06,0.04l0.06,0.04l0.059,0.042l0.058,0.042l0.058,0.043l0.058,0.043l0.057,0.044l0.056,0.045l0.056,0.046l0.055,0.046l0.055,0.046l0.054,0.048l0.054,0.048l0.053,0.049l0.052,0.049l0.052,0.05l0.051,0.05l0.051,0.051l0.05,0.052l0.049,0.053l0.049,0.052l0.048,0.054l0.047,0.054l0.047,0.055l0.046,0.055l0.046,0.056l0.045,0.056l0.044,0.057l0.043,0.057l0.043,0.058l0.043,0.059l0.041,0.059l0.041,0.059l0.04,0.06l0.039,0.061l0.039,0.061l0.038,0.061l0.037,0.062l0.037,0.063l0.036,0.063l0.035,0.063l0.034,0.064l0.034,0.064l0.032,0.065l0.032,0.065l0.032,0.066l0.03,0.066l0.03,0.067l0.029,0.067l0.028,0.067l0.027,0.068l0.027,0.068l0.025,0.069l0.025,0.069l0.024,0.069l0.024,0.07l0.022,0.07l0.022,0.071l0.02,0.071l0.02,0.071l0.019,0.071l0.018,0.072l0.018,0.073l0.016,0.072l0.016,0.073l0.014,0.074l0.014,0.073l0.013,0.074l0.012,0.074l0.011,0.075l0.01,0.075l0.009,0.075l0.008,0.075l0.007,0.076l0.007,0.076l0.005,0.076l0.005,0.076l0.003,0.077l0.003,0.077l0.001,0.077l0.001,0.077l-3.5,0l-0.001,-0.064l-0.003,-0.064l-0.004,-0.063l-0.006,-0.063l-0.007,-0.063l-0.009,-0.062l-0.01,-0.062l-0.012,-0.061l-0.014,-0.06l-0.015,-0.06l-0.016,-0.06l-0.017,-0.058l-0.02,-0.059l-0.02,-0.057l-0.022,-0.057l-0.023,-0.056l-0.024,-0.056l-0.026,-0.055l-0.027,-0.054l-0.029,-0.053l-0.029,-0.053l-0.031,-0.051l-0.032,-0.051l-0.033,-0.051l-0.034,-0.049l-0.036,-0.048l-0.036,-0.048l-0.038,-0.046l-0.039,-0.046l-0.04,-0.045l-0.041,-0.043l-0.041,-0.043l-0.043,-0.042l-0.044,-0.041l-0.045,-0.039l-0.046,-0.039l-0.047,-0.038l-0.047,-0.036l-0.049,-0.035l-0.049,-0.034l-0.05,-0.033l-0.051,-0.032l-0.052,-0.031l-0.053,-0.029l-0.053,-0.028l-0.055,-0.027l-0.055,-0.026l-0.055,-0.024l-0.056,-0.023l-0.057,-0.022l-0.058,-0.02l-0.058,-0.019l-0.059,-0.017l-0.06,-0.017l-0.06,-0.014l-0.06,-0.013l-0.062,-0.012l-0.061,-0.01l-0.062,-0.009l-0.063,-0.007l-0.063,-0.006l-0.064,-0.004l-0.064,-0.002l-0.064,-0.001l-0.064,0.001l-0.065,0.002l-0.063,0.004l-0.063,0.006l-0.063,0.007l-0.063,0.009l-0.061,0.01l-0.062,0.012l-0.06,0.013l-0.06,0.015l-0.06,0.016l-0.059,0.017l-0.058,0.019l-0.058,0.021l-0.057,0.022l-0.057,0.023l-0.055,0.024l-0.055,0.026l-0.055,0.027l-0.053,0.028l-0.053,0.029l-0.052,0.031l-0.051,0.032l-0.05,0.033l-0.05,0.034l-0.048,0.036l-0.048,0.037l-0.047,0.037l-0.046,0.039l-0.045,0.04l-0.043,0.041l-0.043,0.042l-0.042,0.043l-0.041,0.043l-0.04,0.045l-0.039,0.046l-0.037,0.047l-0.037,0.048l-0.036,0.048l-0.034,0.05l-0.033,0.05l-0.032,0.051l-0.031,0.052l-0.029,0.053l-0.028,0.053l-0.027,0.055l-0.026,0.055l-0.024,0.055l-0.023,0.057l-0.022,0.057l-0.021,0.058l-0.019,0.058l-0.017,0.059l-0.016,0.06l-0.015,0.06l-0.013,0.06l-0.012,0.062l-0.01,0.061l-0.009,0.063l-0.007,0.063l-0.006,0.063l-0.004,0.063l-0.002,0.065l-0.001,0.064l0.001,0.064l0.002,0.065l0.004,0.063l0.006,0.063l0.007,0.063l0.009,0.063l0.01,0.061l0.012,0.062l0.013,0.06l0.015,0.06l0.016,0.06l0.017,0.059l0.019,0.058l0.021,0.058l0.022,0.057l0.023,0.057l0.024,0.055l0.026,0.055l0.027,0.055l0.028,0.053l0.029,0.053l0.031,0.052l0.032,0.051l0.033,0.05l0.034,0.05l0.036,0.048l0.037,0.048l0.037,0.047l0.039,0.046l0.04,0.045l0.041,0.043l0.042,0.043l0.043,0.042l0.043,0.041l0.045,0.04l0.046,0.039l0.047,0.037l0.048,0.037l0.048,0.036l0.05,0.034l0.05,0.033l0.051,0.032l0.052,0.031l0.053,0.029l0.053,0.028l0.055,0.027l0.055,0.026l0.055,0.024l0.057,0.023l0.057,0.022l0.058,0.021l0.058,0.019l0.059,0.017l0.06,0.016l0.06,0.015l0.06,0.013l0.062,0.012l0.061,0.01l0.063,0.009l0.063,0.007l0.063,0.006l0.063,0.004l0.065,0.002l0.064,0.001l0.061,-0.001l0.062,-0.002l0.06,-0.004l0.061,-0.005l0.06,-0.006l0.059,-0.008l0.059,-0.01l0.059,-0.01l0.058,-0.012l0.057,-0.014l0.057,-0.014l0.057,-0.016l0.056,-0.018l0.055,-0.018l0.055,-0.02l0.054,-0.021l0.054,-0.022l0.053,-0.024l0.052,-0.025l0.052,-0.025l0.051,-0.027l0.05,-0.028l0.05,-0.03l0.049,-0.03l0.048,-0.031l0.047,-0.033l0.047,-0.033l0.045,-0.035l0.045,-0.035l0.044,-0.037l0.043,-0.038l0.043,-0.038l4.012,0l-0.037,0.113l-0.04,0.112l-0.041,0.11l-0.044,0.11l-0.046,0.109l-0.048,0.108l-0.05,0.106l-0.052,0.105l-0.054,0.104l-0.056,0.103l-0.058,0.102l-0.06,0.101l-0.061,0.099l-0.064,0.098l-0.065,0.096l-0.067,0.096l-0.069,0.093l-0.071,0.093l-0.073,0.091l-0.074,0.089l-0.076,0.089l-0.077,0.086l-0.08,0.085l-0.08,0.084l-0.083,0.082l-0.084,0.08l-0.085,0.079l-0.087,0.077l-0.089,0.076l-0.09,0.073l-0.091,0.072l-0.093,0.071l-0.094,0.068l-0.096,0.067l-0.097,0.065l-0.098,0.063l-0.1,0.061l-0.101,0.059l-0.102,0.058l-0.103,0.055l-0.104,0.054l-0.106,0.051l-0.107,0.049l-0.108,0.048l-0.109,0.045l-0.11,0.043l-0.111,0.041l-0.112,0.039l-0.113,0.037l-0.114,0.035l-0.115,0.032l-0.116,0.03l-0.117,0.028l-0.118,0.026l-0.118,0.023l-0.12,0.021l-0.12,0.019l-0.121,0.016l-0.121,0.013l-0.123,0.012l-0.123,0.009l-0.124,0.006l-0.124,0.004l-0.125,0.001l-0.077,0l-0.078,-0.002l-0.077,-0.002l-0.077,-0.004l-0.076,-0.004l-0.076,-0.006l-0.076,-0.006l-0.076,-0.007l-0.076,-0.008l-0.075,-0.009l-0.075,-0.01l-0.074,-0.011l-0.075,-0.012l-0.074,-0.013l-0.073,-0.013l-0.074,-0.015l-0.073,-0.015l-0.072,-0.017l-0.073,-0.017l-0.072,-0.018l-0.071,-0.019l-0.072,-0.02l-0.071,-0.02l-0.07,-0.022l-0.071,-0.022l-0.07,-0.023l-0.069,-0.024l-0.069,-0.025l-0.069,-0.026l-0.068,-0.026l-0.068,-0.028l-0.068,-0.028l-0.067,-0.029l-0.066,-0.029l-0.066,-0.031l-0.066,-0.031l-0.066,-0.032l-0.065,-0.033l-0.064,-0.033l-0.064,-0.035l-0.063,-0.035l-0.064,-0.035l-0.062,-0.037l-0.062,-0.037l-0.062,-0.038l-0.061,-0.039l-0.061,-0.039l-0.06,-0.04l-0.059,-0.041l-0.059,-0.042l-0.059,-0.042l-0.058,-0.043l-0.057,-0.043l-0.057,-0.044l-0.057,-0.045l-0.056,-0.046l-0.055,-0.046l-0.055,-0.047l-0.054,-0.047l-0.053,-0.048l-0.053,-0.049l-0.053,-0.05l-0.052,-0.05l-0.051,-0.05l-0.05,-0.051l-0.05,-0.052l-0.05,-0.053l-0.049,-0.053l-0.048,-0.053l-0.047,-0.054l-0.047,-0.055l-0.046,-0.055l-0.046,-0.056l-0.045,-0.057l-0.044,-0.057l-0.043,-0.057l-0.043,-0.058l-0.042,-0.059l-0.042,-0.059l-0.041,-0.059l-0.04,-0.06l-0.039,-0.061l-0.039,-0.061l-0.038,-0.062l-0.037,-0.062l-0.037,-0.062l-0.035,-0.064l-0.035,-0.063l-0.035,-0.064l-0.033,-0.064l-0.033,-0.065l-0.032,-0.066l-0.031,-0.066l-0.031,-0.066l-0.029,-0.066l-0.029,-0.067l-0.028,-0.068l-0.028,-0.068l-0.026,-0.068l-0.026,-0.069l-0.025,-0.069l-0.024,-0.069l-0.023,-0.07l-0.022,-0.071l-0.022,-0.07l-0.02,-0.071l-0.02,-0.072l-0.019,-0.071l-0.018,-0.072l-0.017,-0.073l-0.017,-0.072l-0.015,-0.073l-0.015,-0.074l-0.013,-0.073l-0.013,-0.074l-0.012,-0.075l-0.011,-0.074l-0.01,-0.075l-0.009,-0.075l-0.008,-0.076l-0.007,-0.076l-0.006,-0.076l-0.006,-0.076l-0.004,-0.076l-0.004,-0.077l-0.002,-0.077l-0.002,-0.078l0,-0.077l0,-0.077l0.002,-0.078l0.002,-0.077l0.004,-0.077l0.004,-0.076l0.006,-0.076l0.006,-0.076l0.007,-0.076l0.008,-0.076l0.009,-0.075l0.01,-0.075l0.011,-0.074l0.012,-0.075l0.013,-0.074l0.013,-0.073l0.015,-0.074l0.015,-0.073l0.017,-0.072l0.017,-0.073l0.018,-0.072l0.019,-0.071l0.02,-0.072l0.02,-0.071l0.022,-0.07l0.022,-0.071l0.023,-0.07l0.024,-0.069l0.025,-0.069l0.026,-0.069l0.026,-0.068l0.028,-0.068l0.028,-0.068l0.029,-0.067l0.029,-0.066l0.031,-0.066l0.031,-0.066l0.032,-0.066l0.033,-0.065l0.033,-0.064l0.035,-0.064l0.035,-0.063l0.035,-0.064l0.037,-0.062l0.037,-0.062l0.038,-0.062l0.039,-0.061l0.039,-0.061l0.04,-0.06l0.041,-0.059l0.042,-0.059l0.042,-0.059l0.043,-0.058l0.043,-0.057l0.044,-0.057l0.045,-0.057l0.046,-0.056l0.046,-0.055l0.047,-0.055l0.047,-0.054l0.048,-0.053l0.049,-0.053l0.05,-0.053l0.05,-0.052l0.05,-0.051l0.051,-0.05l0.052,-0.05l0.053,-0.05l0.053,-0.049l0.053,-0.048l0.054,-0.047l0.055,-0.047l0.055,-0.046l0.056,-0.046l0.057,-0.045l0.057,-0.044l0.057,-0.043l0.058,-0.043l0.059,-0.042l0.059,-0.042l0.059,-0.041l0.06,-0.04l0.061,-0.039l0.061,-0.039l0.062,-0.038l0.062,-0.037l0.062,-0.037l0.064,-0.035l0.063,-0.035l0.064,-0.035l0.064,-0.033l0.065,-0.033l0.066,-0.032l0.066,-0.031l0.066,-0.031l0.066,-0.029l0.067,-0.029l0.068,-0.028l0.068,-0.028l0.068,-0.026l0.069,-0.026l0.069,-0.025l0.069,-0.024l0.07,-0.023l0.071,-0.022l0.07,-0.022l0.071,-0.02l0.072,-0.02l0.071,-0.019l0.072,-0.018l0.073,-0.017l0.072,-0.017l0.073,-0.015l0.074,-0.015l0.073,-0.013l0.074,-0.013l0.075,-0.012l0.074,-0.011l0.075,-0.01l0.075,-0.009l0.076,-0.008l0.076,-0.007l0.076,-0.006l0.076,-0.006l0.076,-0.004l0.077,-0.004l0.077,-0.002l0.078,-0.002l0.077,0l0.077,0Z"/></g><path d="M12.242,3.758l1.758,-1.758l0,6l-6,0l1.767,-1.767c-0.452,-0.453 -1.077,-0.733 -1.767,-0.733c-1.38,0 -2.5,1.12 -2.5,2.5c0,1.38 1.12,2.5 2.5,2.5c0.658,0 1.256,-0.254 1.703,-0.67l4.012,0c-0.774,2.418 -3.042,4.17 -5.715,4.17c-3.311,0 -6,-2.689 -6,-6c0,-3.311 2.689,-6 6,-6c1.656,0 3.156,0.672 4.242,1.758Z"/></svg>