<?xml version="1.0" encoding="UTF-8" standalone="no"?><!DOCTYPE svg PUBLIC "-//W3C//DTD SVG 1.1//EN" "http://www.w3.org/Graphics/SVG/1.1/DTD/svg11.dtd"><svg width="100%" height="100%" viewBox="0 0 16 16" version="1.1" xmlns="http://www.w3.org/2000/svg" xmlns:xlink="http://www.w3.org/1999/xlink" xml:space="preserve" xmlns:serif="http://www.serif.com/" style="fill-rule:evenodd;clip-rule:evenodd;stroke-linejoin:round;stroke-miterlimit:1.41421;"><path d="M11.284,5.716c-0.723,-1.037 -1.925,-1.716 -3.284,-1.716c-2.208,0 -4,1.792 -4,4c0,2.208 1.792,4 4,4c1.548,0 2.893,-0.882 3.557,-2.17l2.158,0c-0.774,2.418 -3.042,4.17 -5.715,4.17c-3.311,0 -6,-2.689 -6,-6c0,-3.311 2.689,-6 6,-6c1.91,0 3.613,0.895 4.712,2.288l1.288,-1.288l0,4.991l-4.991,0l2.275,-2.275Z" style="fill:#442609;"/></svg>