<?xml version="1.0" encoding="UTF-8" standalone="no"?><!DOCTYPE svg PUBLIC "-//W3C//DTD SVG 1.1//EN" "http://www.w3.org/Graphics/SVG/1.1/DTD/svg11.dtd"><svg width="100%" height="100%" viewBox="0 0 16 16" version="1.1" xmlns="http://www.w3.org/2000/svg" xmlns:xlink="http://www.w3.org/1999/xlink" xml:space="preserve" xmlns:serif="http://www.serif.com/" style="fill-rule:evenodd;clip-rule:evenodd;stroke-linejoin:round;stroke-miterlimit:2;"><g id="recycle"></g><g id="check_box--in-circle-" serif:id="check_box (in circle)"></g><g id="check_box_hover"></g><g id="check_box"></g><g id="check_box1" serif:id="check_box"></g><g id="check_box_checked_hover"></g><g id="zoom_out"></g><g id="check_box2" serif:id="check_box"></g><g id="check_box_hover1" serif:id="check_box_hover"></g><g id="gripper"></g><path d="M4.222,13.692c-0.188,-0.187 -0.293,-0.442 -0.293,-0.707c0,-0.265 0.105,-0.519 0.293,-0.707c1.375,-1.375 4.278,-4.278 4.278,-4.278c0,0 -2.903,-2.903 -4.278,-4.278c-0.188,-0.188 -0.293,-0.442 -0.293,-0.707c0,-0.265 0.105,-0.52 0.293,-0.707c0.34,-0.34 0.746,-0.746 1.086,-1.086c0.39,-0.391 1.023,-0.391 1.414,0c1.563,1.563 5.265,5.265 6.424,6.424c0.196,0.196 0.196,0.512 0,0.708c-1.159,1.159 -4.861,4.861 -6.424,6.424c-0.391,0.391 -1.024,0.391 -1.414,0c-0.34,-0.34 -0.746,-0.746 -1.086,-1.086Z"/></svg>