<?xml version="1.0" encoding="UTF-8" standalone="no"?><!DOCTYPE svg PUBLIC "-//W3C//DTD SVG 1.1//EN" "http://www.w3.org/Graphics/SVG/1.1/DTD/svg11.dtd"><svg width="100%" height="100%" viewBox="0 0 16 16" version="1.1" xmlns="http://www.w3.org/2000/svg" xmlns:xlink="http://www.w3.org/1999/xlink" xml:space="preserve" xmlns:serif="http://www.serif.com/" style="fill-rule:evenodd;clip-rule:evenodd;stroke-miterlimit:1.5;"><g id="check_box"><path d="M29,5.708c0,-1.264 -1.027,-2.291 -2.292,-2.291l-5.416,0c-1.265,0 -2.292,1.027 -2.292,2.291l0,4.584c0,1.264 1.027,2.291 2.292,2.291l5.416,0c1.265,0 2.292,-1.027 2.292,-2.291l0,-4.584Z" style="fill:none;stroke:#442608;stroke-width:2.5px;"/></g><g id="check_box1" serif:id="check_box"><path d="M29,5.708c0,-1.264 -1.027,-2.291 -2.292,-2.291l-5.416,0c-1.265,0 -2.292,1.027 -2.292,2.291l0,4.584c0,1.264 1.027,2.291 2.292,2.291l5.416,0c1.265,0 2.292,-1.027 2.292,-2.291l0,-4.584Z" style="fill:none;stroke:#000;stroke-width:2.5px;"/></g><g id="zoom_out"><rect x="1" y="1" width="6" height="6"/><rect x="9" y="1" width="6" height="6"/><rect x="9" y="9" width="6" height="6"/><rect x="1" y="9" width="6" height="6"/></g></svg>